<svg xmlns="http://www.w3.org/2000/svg" xmlns:xlink="http://www.w3.org/1999/xlink" width="500" zoomAndPan="magnify" viewBox="0 0 375 149.999998" height="200" preserveAspectRatio="xMidYMid meet" version="1.0"><defs><g/><clipPath id="f993c03471"><path d="M 49.632812 40.195312 L 63.625 40.195312 L 63.625 62 L 49.632812 62 Z M 49.632812 40.195312 " clip-rule="nonzero"/></clipPath><clipPath id="d118f976b2"><path d="M 53 18.125 L 325.371094 18.125 L 325.371094 64 L 53 64 Z M 53 18.125 " clip-rule="nonzero"/></clipPath><clipPath id="3e7b15a8b0"><path d="M 148 63.773438 L 231.789062 63.773438 L 231.789062 74.945312 L 148 74.945312 Z M 148 63.773438 " clip-rule="nonzero"/></clipPath><clipPath id="36b14a35d0"><path d="M 141.1875 91.09375 L 147.9375 91.09375 L 147.9375 91.515625 L 141.1875 91.515625 Z M 141.1875 91.09375 " clip-rule="nonzero"/></clipPath><clipPath id="ecd6d36c8e"><path d="M 226.898438 91.09375 L 233.648438 91.09375 L 233.648438 91.515625 L 226.898438 91.515625 Z M 226.898438 91.09375 " clip-rule="nonzero"/></clipPath></defs><path fill="#e52024" d="M 299.1875 51.828125 L 304.738281 57.921875 C 305.398438 58.648438 306.296875 59.113281 307.265625 59.230469 L 315.097656 60.203125 C 315.28125 60.226562 315.414062 60.386719 315.402344 60.570312 C 315.390625 60.75 315.238281 60.894531 315.054688 60.894531 L 304.808594 60.894531 C 304.695312 60.894531 304.585938 60.839844 304.523438 60.746094 L 298.648438 52.257812 C 298.542969 52.109375 298.574219 51.90625 298.71875 51.789062 C 298.859375 51.675781 299.066406 51.691406 299.1875 51.828125 " fill-opacity="1" fill-rule="nonzero"/><g clip-path="url(#f993c03471)"><path fill="#e52024" d="M 49.648438 61.726562 L 57.65625 45.003906 C 57.707031 44.902344 57.707031 44.792969 57.660156 44.695312 C 57.613281 44.59375 57.527344 44.515625 57.414062 44.476562 L 56.679688 44.214844 C 56.589844 44.183594 56.546875 44.09375 56.578125 44.015625 L 58.054688 40.449219 C 58.082031 40.378906 58.160156 40.335938 58.238281 40.347656 L 63.214844 41 C 63.273438 41.007812 63.320312 41.039062 63.347656 41.085938 C 63.371094 41.132812 63.371094 41.1875 63.339844 41.234375 L 49.957031 61.867188 C 49.925781 61.917969 49.867188 61.945312 49.808594 61.945312 C 49.78125 61.945312 49.753906 61.941406 49.730469 61.929688 C 49.648438 61.890625 49.613281 61.804688 49.648438 61.726562 " fill-opacity="1" fill-rule="nonzero"/></g><g clip-path="url(#d118f976b2)"><path fill="#000000" d="M 53.875 35.019531 L 54.113281 35.859375 C 54.773438 38.191406 57.140625 39.589844 59.5 39.042969 C 60.339844 38.847656 61.097656 38.679688 61.515625 38.59375 C 62.210938 38.476562 62.964844 38.367188 63.761719 38.242188 C 64.5625 38.125 65.40625 37.972656 66.320312 37.882812 C 67.234375 37.777344 68.195312 37.667969 69.199219 37.550781 C 70.210938 37.4375 71.28125 37.367188 72.386719 37.265625 C 72.941406 37.214844 73.503906 37.167969 74.085938 37.121094 C 74.664062 37.085938 75.257812 37.046875 75.859375 37.011719 C 77.066406 36.945312 78.3125 36.847656 79.609375 36.800781 C 84.78125 36.546875 90.660156 36.464844 97.078125 36.488281 C 103.496094 36.535156 110.460938 36.746094 117.828125 37.082031 C 125.195312 37.417969 132.96875 37.878906 141.007812 38.441406 C 145.027344 38.71875 149.113281 39.027344 153.25 39.351562 C 157.382812 39.6875 161.566406 40.0625 165.785156 40.445312 C 174.21875 41.210938 182.777344 42.054688 191.347656 42.921875 C 195.628906 43.355469 199.910156 43.789062 204.179688 44.222656 C 206.316406 44.433594 208.449219 44.644531 210.574219 44.851562 C 211.640625 44.949219 212.703125 45.046875 213.765625 45.144531 C 214.820312 45.246094 215.902344 45.320312 216.960938 45.398438 C 221.207031 45.738281 225.445312 45.921875 229.636719 45.925781 C 233.832031 45.953125 237.976562 45.769531 242.023438 45.445312 C 246.070312 45.121094 250.011719 44.699219 253.867188 44.398438 C 257.71875 44.089844 261.5 43.890625 265.164062 43.792969 C 266.085938 43.78125 267.003906 43.761719 267.917969 43.75 C 268.371094 43.746094 268.824219 43.738281 269.28125 43.730469 L 269.621094 43.726562 L 269.9375 43.730469 L 270.597656 43.746094 C 271.039062 43.757812 271.476562 43.757812 271.90625 43.78125 C 272.34375 43.8125 272.777344 43.84375 273.207031 43.871094 C 274.074219 43.917969 274.929688 44.042969 275.777344 44.136719 C 279.167969 44.570312 282.421875 45.273438 285.503906 46.097656 C 291.667969 47.753906 297.171875 49.851562 301.96875 51.871094 C 306.753906 53.9375 310.832031 55.953125 314.152344 57.6875 C 317.46875 59.414062 320.023438 60.871094 321.742188 61.894531 C 322.609375 62.40625 323.261719 62.804688 323.699219 63.070312 C 323.824219 63.148438 323.964844 63.1875 324.101562 63.1875 C 324.359375 63.1875 324.609375 63.058594 324.75 62.824219 C 325.371094 61.808594 325.03125 60.480469 323.996094 59.894531 C 323.746094 59.746094 323.460938 59.585938 323.15625 59.414062 C 321.378906 58.414062 318.765625 56.980469 315.378906 55.273438 C 311.992188 53.566406 307.824219 51.589844 302.941406 49.558594 C 298.058594 47.53125 292.457031 45.417969 286.121094 43.746094 C 282.953125 42.917969 279.605469 42.207031 276.074219 41.769531 C 275.1875 41.675781 274.300781 41.550781 273.394531 41.503906 C 272.941406 41.472656 272.488281 41.4375 272.03125 41.40625 C 271.570312 41.386719 271.113281 41.378906 270.648438 41.367188 L 269.957031 41.351562 L 269.597656 41.34375 L 269.257812 41.351562 C 268.804688 41.351562 268.351562 41.355469 267.894531 41.363281 C 266.980469 41.375 266.0625 41.386719 265.136719 41.398438 C 261.398438 41.484375 257.578125 41.675781 253.683594 41.972656 C 249.789062 42.269531 245.839844 42.679688 241.835938 42.984375 C 237.839844 43.296875 233.78125 43.46875 229.664062 43.421875 C 225.546875 43.375 221.378906 43.144531 217.179688 42.765625 C 216.125 42.671875 215.089844 42.589844 214.027344 42.476562 C 212.972656 42.367188 211.914062 42.257812 210.855469 42.148438 C 208.738281 41.914062 206.613281 41.679688 204.484375 41.445312 C 200.226562 40.964844 195.949219 40.484375 191.667969 40 C 174.554688 38.0625 157.410156 36.253906 141.304688 34.882812 C 137.933594 34.59375 134.605469 34.324219 131.332031 34.078125 C 131.054688 34.054688 130.769531 34.03125 130.488281 34.011719 C 130.878906 33.847656 131.308594 33.671875 131.773438 33.484375 C 136.320312 31.664062 144.367188 28.886719 156.890625 25.988281 C 170.113281 22.921875 185.171875 23.652344 195.886719 24.894531 C 203.34375 25.761719 210.6875 27.460938 217.753906 30.011719 C 217.789062 30.027344 217.816406 30.035156 217.855469 30.050781 C 226.367188 33.128906 233.238281 36.328125 237.964844 38.699219 C 240.324219 39.886719 242.152344 40.871094 243.386719 41.558594 C 243.789062 41.78125 244.160156 42.007812 244.457031 42.1875 C 244.460938 42.1875 244.460938 42.191406 244.464844 42.191406 C 244.472656 42.195312 244.480469 42.199219 244.484375 42.203125 C 244.789062 42.371094 245.214844 42.425781 245.273438 42.433594 C 245.277344 42.433594 245.28125 42.433594 245.28125 42.433594 C 245.921875 42.402344 247.148438 42.296875 248.023438 42.214844 C 248.0625 42.210938 248.101562 42.210938 248.140625 42.207031 C 248.152344 42.207031 248.160156 42.207031 248.171875 42.203125 C 248.8125 42.113281 248.574219 41.871094 248.390625 41.742188 C 248.378906 41.730469 248.367188 41.722656 248.359375 41.722656 C 248.339844 41.710938 248.320312 41.699219 248.304688 41.6875 C 248.289062 41.679688 248.273438 41.667969 248.253906 41.660156 C 248.253906 41.65625 248.253906 41.65625 248.253906 41.65625 C 247.394531 41.128906 246.09375 40.328125 246.019531 40.28125 C 245.695312 40.09375 245.21875 39.8125 244.59375 39.449219 C 243.34375 38.730469 241.5 37.703125 239.121094 36.464844 C 234.359375 33.992188 227.453125 30.652344 218.84375 27.402344 C 214.542969 25.773438 209.8125 24.183594 204.722656 22.789062 C 199.632812 21.390625 194.183594 20.179688 188.464844 19.355469 C 182.746094 18.566406 176.753906 18.175781 170.671875 18.429688 C 169.90625 18.453125 169.148438 18.53125 168.386719 18.578125 L 166.664062 18.707031 L 166.097656 18.761719 C 164.59375 18.914062 163.089844 19.0625 161.582031 19.210938 C 158.5625 19.511719 155.527344 19.855469 152.496094 20.179688 C 146.4375 20.863281 140.378906 21.574219 134.429688 22.320312 C 131.453125 22.691406 128.5 23.066406 125.585938 23.449219 C 122.667969 23.828125 119.792969 24.214844 116.957031 24.601562 C 114.128906 24.992188 111.34375 25.375 108.621094 25.753906 C 105.898438 26.125 103.238281 26.535156 100.648438 26.921875 C 99.898438 27.035156 99.160156 27.148438 98.417969 27.257812 C 97.882812 27.34375 97.347656 27.421875 96.820312 27.503906 L 131.261719 33.566406 C 131.261719 33.566406 131.226562 33.5625 131.152344 33.558594 C 131.132812 33.558594 131.109375 33.554688 131.085938 33.554688 C 129.492188 33.425781 117.402344 32.527344 102.613281 32.1875 C 86.132812 31.8125 66.292969 32.132812 53.886719 35.015625 C 53.882812 35.015625 53.878906 35.019531 53.875 35.019531 " fill-opacity="1" fill-rule="nonzero"/></g><path fill="#000000" d="M 215.167969 38.863281 L 215.167969 37.917969 C 215.167969 37.292969 215.507812 36.722656 216.054688 36.421875 L 217.921875 35.40625 C 218.601562 35.03125 219.410156 34.976562 220.132812 35.253906 L 228.011719 38.25 C 228.453125 38.417969 228.75 38.847656 228.75 39.320312 L 228.75 40.789062 C 228.75 40.914062 228.703125 41.039062 228.617188 41.132812 L 227.605469 42.273438 C 227.507812 42.382812 227.363281 42.449219 227.214844 42.449219 L 222.910156 42.449219 C 222.726562 42.449219 222.558594 42.351562 222.460938 42.195312 C 222.371094 42.039062 222.363281 41.84375 222.449219 41.683594 L 222.722656 41.167969 L 216.066406 39.941406 C 215.546875 39.847656 215.167969 39.394531 215.167969 38.863281 " fill-opacity="1" fill-rule="nonzero"/><path fill="#000000" d="M 125.609375 40.90625 L 131.128906 39.027344 C 131.285156 38.972656 131.464844 39.019531 131.554688 39.140625 C 131.644531 39.261719 131.617188 39.417969 131.488281 39.511719 L 128.53125 41.683594 C 128.285156 41.867188 128.21875 42.164062 128.371094 42.40625 L 141.964844 64.035156 L 148.613281 68.535156 C 148.757812 68.632812 148.785156 68.808594 148.671875 68.933594 C 148.605469 69.011719 148.5 69.054688 148.394531 69.054688 C 148.328125 69.054688 148.261719 69.035156 148.203125 69.003906 L 140.921875 64.945312 C 140.875 64.917969 140.835938 64.882812 140.808594 64.84375 L 125.4375 41.316406 C 125.390625 41.242188 125.382812 41.15625 125.414062 41.078125 C 125.449219 41 125.519531 40.9375 125.609375 40.90625 " fill-opacity="1" fill-rule="nonzero"/><g clip-path="url(#3e7b15a8b0)"><path fill="#000000" d="M 148.222656 63.910156 C 148.234375 63.832031 148.316406 63.777344 148.414062 63.789062 L 227.789062 71.976562 C 227.847656 71.984375 227.898438 72.011719 227.921875 72.058594 C 227.949219 72.101562 227.945312 72.152344 227.914062 72.195312 L 227.070312 73.347656 L 231.378906 74.664062 C 231.464844 74.691406 231.511719 74.765625 231.488281 74.835938 C 231.46875 74.902344 231.398438 74.945312 231.320312 74.945312 C 231.3125 74.945312 231.304688 74.945312 231.292969 74.945312 L 148.367188 64.074219 C 148.273438 64.0625 148.210938 63.988281 148.222656 63.910156 " fill-opacity="1" fill-rule="nonzero"/></g><path fill="#000000" d="M 271.195312 51.023438 C 280.035156 51.023438 288.289062 55.777344 292.738281 63.433594 C 292.871094 63.660156 292.804688 63.9375 292.582031 64.078125 C 292.496094 64.132812 292.40625 64.15625 292.316406 64.15625 C 292.167969 64.15625 292.019531 64.085938 291.921875 63.949219 C 287.246094 57.246094 279.304688 53.082031 271.195312 53.082031 C 263.890625 53.082031 256.335938 56.625 251.484375 62.328125 C 251.316406 62.527344 251.03125 62.558594 250.824219 62.398438 C 250.617188 62.238281 250.574219 61.957031 250.722656 61.742188 C 255.382812 55.027344 263.035156 51.023438 271.195312 51.023438 " fill-opacity="1" fill-rule="nonzero"/><path fill="#000000" d="M 92.199219 45.820312 C 101.039062 45.820312 109.296875 50.578125 113.746094 58.230469 C 113.875 58.457031 113.808594 58.738281 113.585938 58.878906 C 113.503906 58.929688 113.414062 58.957031 113.324219 58.957031 C 113.171875 58.957031 113.023438 58.882812 112.929688 58.75 C 108.253906 52.046875 100.3125 47.882812 92.199219 47.882812 C 84.894531 47.882812 77.34375 51.421875 72.492188 57.125 C 72.320312 57.324219 72.039062 57.355469 71.828125 57.195312 C 71.625 57.035156 71.578125 56.753906 71.726562 56.539062 C 76.386719 49.828125 84.042969 45.820312 92.199219 45.820312 " fill-opacity="1" fill-rule="nonzero"/><path fill="#000000" d="M 248.023438 42.214844 L 248.023438 42.21875 C 248.0625 42.214844 248.105469 42.210938 248.140625 42.207031 C 248.101562 42.210938 248.0625 42.210938 248.023438 42.214844 " fill-opacity="1" fill-rule="nonzero"/><g fill="#000000" fill-opacity="1"><g transform="translate(102.515766, 97.355083)"><g><path d="M 16.914062 0 L 14.894531 0 L 14.894531 -3.578125 C 14.894531 -3.855469 14.792969 -4.09375 14.597656 -4.292969 C 14.398438 -4.492188 14.160156 -4.589844 13.882812 -4.589844 L 3.792969 -4.589844 L 3.792969 0 L 1.773438 0 L 1.773438 -12.707031 L 13.882812 -12.707031 C 14.714844 -12.707031 15.429688 -12.410156 16.023438 -11.820312 C 16.617188 -11.226562 16.914062 -10.515625 16.914062 -9.683594 L 16.914062 -7.621094 C 16.914062 -6.839844 16.652344 -6.167969 16.132812 -5.597656 C 16.652344 -5.027344 16.914062 -4.351562 16.914062 -3.578125 Z M 13.882812 -6.609375 C 14.160156 -6.609375 14.398438 -6.707031 14.597656 -6.90625 C 14.792969 -7.105469 14.894531 -7.34375 14.894531 -7.621094 L 14.894531 -9.683594 C 14.894531 -9.960938 14.792969 -10.199219 14.597656 -10.398438 C 14.398438 -10.59375 14.160156 -10.695312 13.882812 -10.695312 L 3.792969 -10.695312 L 3.792969 -6.609375 Z M 13.882812 -6.609375 "/></g></g></g><g fill="#000000" fill-opacity="1"><g transform="translate(126.815384, 97.355083)"><g><path d="M 15.902344 0 L 1.773438 0 L 1.773438 -12.707031 L 15.902344 -12.707031 L 15.902344 -10.695312 L 3.792969 -10.695312 L 3.792969 -7.363281 L 14.46875 -7.363281 L 14.46875 -5.34375 L 3.792969 -5.34375 L 3.792969 -2.019531 L 15.902344 -2.019531 Z M 15.902344 0 "/></g></g></g><g fill="#000000" fill-opacity="1"><g transform="translate(150.105242, 97.355083)"><g><path d="M 16.914062 0 L 15.539062 0 L 3.792969 -9.578125 L 3.792969 0 L 1.773438 0 L 1.773438 -12.707031 L 3.136719 -12.707031 L 14.894531 -3.136719 L 14.894531 -12.707031 L 16.914062 -12.707031 Z M 16.914062 0 "/></g></g></g><g fill="#000000" fill-opacity="1"><g transform="translate(174.847737, 97.355083)"><g><path d="M 8.035156 0 L 6.015625 0 L 6.015625 -10.695312 L 0.265625 -10.695312 L 0.265625 -12.707031 L 13.792969 -12.707031 L 13.792969 -10.695312 L 8.035156 -10.695312 Z M 8.035156 0 "/></g></g></g><g fill="#000000" fill-opacity="1"><g transform="translate(194.966593, 97.355083)"><g/></g></g><g fill="#000000" fill-opacity="1"><g transform="translate(205.528155, 97.355083)"><g><path d="M 12.429688 0 C 13.546875 0 14.5 -0.394531 15.289062 -1.183594 C 16.078125 -1.972656 16.46875 -2.921875 16.46875 -4.039062 L 14.449219 -4.039062 C 14.449219 -3.480469 14.253906 -3.003906 13.855469 -2.609375 C 13.460938 -2.214844 12.984375 -2.019531 12.429688 -2.019531 L 5.367188 -2.019531 C 4.808594 -2.019531 4.332031 -2.214844 3.9375 -2.609375 C 3.546875 -3.003906 3.347656 -3.480469 3.347656 -4.039062 L 3.347656 -8.675781 C 3.347656 -9.230469 3.546875 -9.703125 3.9375 -10.101562 C 4.332031 -10.496094 4.808594 -10.695312 5.367188 -10.695312 L 12.429688 -10.695312 C 12.984375 -10.695312 13.460938 -10.496094 13.855469 -10.101562 C 14.253906 -9.703125 14.449219 -9.230469 14.449219 -8.675781 L 16.46875 -8.675781 C 16.46875 -9.785156 16.078125 -10.734375 15.289062 -11.523438 C 14.5 -12.3125 13.546875 -12.707031 12.429688 -12.707031 L 5.367188 -12.707031 C 4.253906 -12.707031 3.300781 -12.3125 2.511719 -11.523438 C 1.722656 -10.734375 1.328125 -9.785156 1.328125 -8.675781 L 1.328125 -4.039062 C 1.328125 -2.921875 1.722656 -1.972656 2.511719 -1.183594 C 3.300781 -0.394531 4.253906 0 5.367188 0 Z M 12.429688 0 "/></g></g></g><g fill="#000000" fill-opacity="1"><g transform="translate(229.384895, 97.355083)"><g><path d="M 18.527344 0 L 16.082031 0 L 14.21875 -2.753906 L 4.570312 -2.753906 L 2.703125 0 L 0.265625 0 L 8.859375 -12.707031 L 9.933594 -12.707031 Z M 12.855469 -4.777344 L 9.390625 -9.898438 L 5.925781 -4.777344 Z M 12.855469 -4.777344 "/></g></g></g><g fill="#000000" fill-opacity="1"><g transform="translate(254.233681, 97.355083)"><g><path d="M 16.914062 0 L 14.894531 0 L 14.894531 -3.578125 C 14.894531 -3.855469 14.792969 -4.09375 14.597656 -4.292969 C 14.398438 -4.492188 14.160156 -4.589844 13.882812 -4.589844 L 3.792969 -4.589844 L 3.792969 0 L 1.773438 0 L 1.773438 -12.707031 L 13.882812 -12.707031 C 14.714844 -12.707031 15.429688 -12.410156 16.023438 -11.820312 C 16.617188 -11.226562 16.914062 -10.515625 16.914062 -9.683594 L 16.914062 -7.621094 C 16.914062 -6.839844 16.652344 -6.167969 16.132812 -5.597656 C 16.652344 -5.027344 16.914062 -4.351562 16.914062 -3.578125 Z M 13.882812 -6.609375 C 14.160156 -6.609375 14.398438 -6.707031 14.597656 -6.90625 C 14.792969 -7.105469 14.894531 -7.34375 14.894531 -7.621094 L 14.894531 -9.683594 C 14.894531 -9.960938 14.792969 -10.199219 14.597656 -10.398438 C 14.398438 -10.59375 14.160156 -10.695312 13.882812 -10.695312 L 3.792969 -10.695312 L 3.792969 -6.609375 Z M 13.882812 -6.609375 "/></g></g></g><g fill="#e52024" fill-opacity="1"><g transform="translate(107.607588, 110.205922)"><g><path d="M 6.234375 0 L 6.234375 -0.9375 L 1.761719 -0.9375 L 1.761719 -5.90625 L 0.824219 -5.90625 L 0.824219 0 Z M 6.234375 0 "/></g></g></g><g fill="#e52024" fill-opacity="1"><g transform="translate(115.821133, 110.205922)"><g><path d="M 5.78125 0 C 6.300781 0 6.742188 -0.183594 7.109375 -0.550781 C 7.476562 -0.917969 7.660156 -1.359375 7.660156 -1.878906 L 7.660156 -4.035156 C 7.660156 -4.550781 7.476562 -4.992188 7.109375 -5.359375 C 6.742188 -5.726562 6.300781 -5.90625 5.78125 -5.90625 L 2.496094 -5.90625 C 1.976562 -5.90625 1.535156 -5.726562 1.167969 -5.359375 C 0.800781 -4.992188 0.617188 -4.550781 0.617188 -4.035156 L 0.617188 -1.878906 C 0.617188 -1.359375 0.800781 -0.917969 1.167969 -0.550781 C 1.535156 -0.183594 1.976562 0 2.496094 0 Z M 5.78125 -0.9375 L 2.496094 -0.9375 C 2.234375 -0.9375 2.015625 -1.03125 1.832031 -1.214844 C 1.648438 -1.394531 1.558594 -1.617188 1.558594 -1.878906 L 1.558594 -4.035156 C 1.558594 -4.292969 1.648438 -4.511719 1.832031 -4.695312 C 2.015625 -4.878906 2.234375 -4.972656 2.496094 -4.972656 L 5.78125 -4.972656 C 6.039062 -4.972656 6.257812 -4.878906 6.445312 -4.695312 C 6.628906 -4.511719 6.71875 -4.292969 6.71875 -4.035156 L 6.71875 -1.878906 C 6.71875 -1.617188 6.628906 -1.394531 6.445312 -1.214844 C 6.257812 -1.03125 6.039062 -0.9375 5.78125 -0.9375 Z M 5.78125 -0.9375 "/></g></g></g><g fill="#e52024" fill-opacity="1"><g transform="translate(125.788607, 110.205922)"><g><path d="M 5.78125 0 C 6.300781 0 6.742188 -0.183594 7.109375 -0.550781 C 7.476562 -0.917969 7.660156 -1.359375 7.660156 -1.878906 L 7.660156 -5.90625 L 6.71875 -5.90625 L 6.71875 -1.878906 C 6.71875 -1.617188 6.628906 -1.394531 6.445312 -1.214844 C 6.257812 -1.03125 6.039062 -0.9375 5.78125 -0.9375 L 2.496094 -0.9375 C 2.234375 -0.9375 2.015625 -1.03125 1.832031 -1.214844 C 1.648438 -1.394531 1.558594 -1.617188 1.558594 -1.878906 L 1.558594 -5.90625 L 0.617188 -5.90625 L 0.617188 -1.878906 C 0.617188 -1.359375 0.800781 -0.917969 1.167969 -0.550781 C 1.535156 -0.183594 1.976562 0 2.496094 0 Z M 5.78125 0 "/></g></g></g><g fill="#e52024" fill-opacity="1"><g transform="translate(135.75608, 110.205922)"><g><path d="M 7.394531 0 L 0.824219 0 L 0.824219 -5.90625 L 7.394531 -5.90625 L 7.394531 -4.972656 L 1.761719 -4.972656 L 1.761719 -3.421875 L 6.726562 -3.421875 L 6.726562 -2.484375 L 1.761719 -2.484375 L 1.761719 -0.9375 L 7.394531 -0.9375 Z M 7.394531 0 "/></g></g></g><g fill="#e52024" fill-opacity="1"><g transform="translate(145.460052, 110.205922)"><g><path d="M 7.1875 0 L 7.1875 -0.9375 L 1.617188 -0.9375 C 1.578125 -0.9375 1.558594 -0.960938 1.558594 -1 L 1.558594 -1.511719 C 1.558594 -1.539062 1.570312 -1.558594 1.597656 -1.574219 L 6.988281 -3.464844 C 7.191406 -3.539062 7.351562 -3.660156 7.476562 -3.832031 C 7.597656 -4.003906 7.660156 -4.195312 7.660156 -4.410156 L 7.660156 -4.90625 C 7.660156 -5.183594 7.5625 -5.421875 7.363281 -5.617188 C 7.167969 -5.808594 6.933594 -5.90625 6.65625 -5.90625 L 1.085938 -5.90625 L 1.085938 -4.972656 L 6.65625 -4.972656 C 6.699219 -4.972656 6.71875 -4.949219 6.71875 -4.90625 L 6.71875 -4.410156 C 6.71875 -4.382812 6.707031 -4.363281 6.679688 -4.351562 L 1.289062 -2.457031 C 1.085938 -2.382812 0.921875 -2.257812 0.800781 -2.085938 C 0.679688 -1.914062 0.617188 -1.722656 0.617188 -1.511719 L 0.617188 -1 C 0.617188 -0.726562 0.714844 -0.492188 0.914062 -0.292969 C 1.109375 -0.0976562 1.34375 0 1.617188 0 Z M 7.1875 0 "/></g></g></g><g fill="#e52024" fill-opacity="1"><g transform="translate(155.427526, 110.205922)"><g/></g></g><g fill="#e52024" fill-opacity="1"><g transform="translate(159.21508, 110.205922)"><g><path d="M 6.234375 0 L 6.234375 -0.9375 L 1.761719 -0.9375 L 1.761719 -5.90625 L 0.824219 -5.90625 L 0.824219 0 Z M 6.234375 0 "/></g></g></g><g fill="#e52024" fill-opacity="1"><g transform="translate(167.428625, 110.205922)"><g><path d="M 1.1875 -4.609375 L 0.71875 -4.609375 L 0.71875 -5.15625 L 0.246094 -5.15625 L 0.246094 -5.90625 L 1.1875 -5.90625 Z M 1.1875 -4.609375 "/></g></g></g><g fill="#e52024" fill-opacity="1"><g transform="translate(170.557427, 110.205922)"><g><path d="M 7.394531 0 L 0.824219 0 L 0.824219 -5.90625 L 7.394531 -5.90625 L 7.394531 -4.972656 L 1.761719 -4.972656 L 1.761719 -3.421875 L 6.726562 -3.421875 L 6.726562 -2.484375 L 1.761719 -2.484375 L 1.761719 -0.9375 L 7.394531 -0.9375 Z M 7.394531 0 "/></g></g></g><g fill="#e52024" fill-opacity="1"><g transform="translate(180.261399, 110.205922)"><g><path d="M 8.261719 0 L 6.832031 0 L 4.1875 -2.328125 L 1.539062 0 L 0.125 0 L 3.476562 -2.953125 L 0.125 -5.90625 L 1.539062 -5.90625 L 4.1875 -3.582031 L 6.832031 -5.90625 L 8.261719 -5.90625 L 4.894531 -2.953125 Z M 8.261719 0 "/></g></g></g><g fill="#e52024" fill-opacity="1"><g transform="translate(190.33592, 110.205922)"><g><path d="M 5.78125 0 C 6.300781 0 6.742188 -0.183594 7.109375 -0.550781 C 7.476562 -0.917969 7.660156 -1.359375 7.660156 -1.878906 L 6.71875 -1.878906 C 6.71875 -1.617188 6.628906 -1.394531 6.445312 -1.214844 C 6.257812 -1.03125 6.039062 -0.9375 5.78125 -0.9375 L 2.496094 -0.9375 C 2.234375 -0.9375 2.015625 -1.03125 1.832031 -1.214844 C 1.648438 -1.394531 1.558594 -1.617188 1.558594 -1.878906 L 1.558594 -4.035156 C 1.558594 -4.292969 1.648438 -4.511719 1.832031 -4.695312 C 2.015625 -4.878906 2.234375 -4.972656 2.496094 -4.972656 L 5.78125 -4.972656 C 6.039062 -4.972656 6.257812 -4.878906 6.445312 -4.695312 C 6.628906 -4.511719 6.71875 -4.292969 6.71875 -4.035156 L 7.660156 -4.035156 C 7.660156 -4.550781 7.476562 -4.992188 7.109375 -5.359375 C 6.742188 -5.726562 6.300781 -5.90625 5.78125 -5.90625 L 2.496094 -5.90625 C 1.976562 -5.90625 1.535156 -5.726562 1.167969 -5.359375 C 0.800781 -4.992188 0.617188 -4.550781 0.617188 -4.035156 L 0.617188 -1.878906 C 0.617188 -1.359375 0.800781 -0.917969 1.167969 -0.550781 C 1.535156 -0.183594 1.976562 0 2.496094 0 Z M 5.78125 0 "/></g></g></g><g fill="#e52024" fill-opacity="1"><g transform="translate(200.303393, 110.205922)"><g><path d="M 7.394531 0 L 0.824219 0 L 0.824219 -5.90625 L 7.394531 -5.90625 L 7.394531 -4.972656 L 1.761719 -4.972656 L 1.761719 -3.421875 L 6.726562 -3.421875 L 6.726562 -2.484375 L 1.761719 -2.484375 L 1.761719 -0.9375 L 7.394531 -0.9375 Z M 7.394531 0 "/></g></g></g><g fill="#e52024" fill-opacity="1"><g transform="translate(210.007365, 110.205922)"><g><path d="M 6.234375 0 L 6.234375 -0.9375 L 1.761719 -0.9375 L 1.761719 -5.90625 L 0.824219 -5.90625 L 0.824219 0 Z M 6.234375 0 "/></g></g></g><g fill="#e52024" fill-opacity="1"><g transform="translate(218.220911, 110.205922)"><g><path d="M 6.234375 0 L 6.234375 -0.9375 L 1.761719 -0.9375 L 1.761719 -5.90625 L 0.824219 -5.90625 L 0.824219 0 Z M 6.234375 0 "/></g></g></g><g fill="#e52024" fill-opacity="1"><g transform="translate(226.434456, 110.205922)"><g><path d="M 7.394531 0 L 0.824219 0 L 0.824219 -5.90625 L 7.394531 -5.90625 L 7.394531 -4.972656 L 1.761719 -4.972656 L 1.761719 -3.421875 L 6.726562 -3.421875 L 6.726562 -2.484375 L 1.761719 -2.484375 L 1.761719 -0.9375 L 7.394531 -0.9375 Z M 7.394531 0 "/></g></g></g><g fill="#e52024" fill-opacity="1"><g transform="translate(236.138429, 110.205922)"><g><path d="M 7.863281 0 L 7.226562 0 L 1.761719 -4.453125 L 1.761719 0 L 0.824219 0 L 0.824219 -5.90625 L 1.457031 -5.90625 L 6.925781 -1.457031 L 6.925781 -5.90625 L 7.863281 -5.90625 Z M 7.863281 0 "/></g></g></g><g fill="#e52024" fill-opacity="1"><g transform="translate(246.517622, 110.205922)"><g><path d="M 5.78125 0 C 6.300781 0 6.742188 -0.183594 7.109375 -0.550781 C 7.476562 -0.917969 7.660156 -1.359375 7.660156 -1.878906 L 6.71875 -1.878906 C 6.71875 -1.617188 6.628906 -1.394531 6.445312 -1.214844 C 6.257812 -1.03125 6.039062 -0.9375 5.78125 -0.9375 L 2.496094 -0.9375 C 2.234375 -0.9375 2.015625 -1.03125 1.832031 -1.214844 C 1.648438 -1.394531 1.558594 -1.617188 1.558594 -1.878906 L 1.558594 -4.035156 C 1.558594 -4.292969 1.648438 -4.511719 1.832031 -4.695312 C 2.015625 -4.878906 2.234375 -4.972656 2.496094 -4.972656 L 5.78125 -4.972656 C 6.039062 -4.972656 6.257812 -4.878906 6.445312 -4.695312 C 6.628906 -4.511719 6.71875 -4.292969 6.71875 -4.035156 L 7.660156 -4.035156 C 7.660156 -4.550781 7.476562 -4.992188 7.109375 -5.359375 C 6.742188 -5.726562 6.300781 -5.90625 5.78125 -5.90625 L 2.496094 -5.90625 C 1.976562 -5.90625 1.535156 -5.726562 1.167969 -5.359375 C 0.800781 -4.992188 0.617188 -4.550781 0.617188 -4.035156 L 0.617188 -1.878906 C 0.617188 -1.359375 0.800781 -0.917969 1.167969 -0.550781 C 1.535156 -0.183594 1.976562 0 2.496094 0 Z M 5.78125 0 "/></g></g></g><g fill="#e52024" fill-opacity="1"><g transform="translate(256.485095, 110.205922)"><g><path d="M 7.394531 0 L 0.824219 0 L 0.824219 -5.90625 L 7.394531 -5.90625 L 7.394531 -4.972656 L 1.761719 -4.972656 L 1.761719 -3.421875 L 6.726562 -3.421875 L 6.726562 -2.484375 L 1.761719 -2.484375 L 1.761719 -0.9375 L 7.394531 -0.9375 Z M 7.394531 0 "/></g></g></g><g fill="#e52024" fill-opacity="1"><g transform="translate(266.189068, 110.205922)"><g><path d="M 1.0625 0.546875 L 0.59375 0.546875 L 0.59375 0 L 0.125 0 L 0.125 -0.75 L 1.0625 -0.75 Z M 1.0625 0.546875 "/></g></g></g><g fill="#e52024" fill-opacity="1"><g transform="translate(117.547461, 121.633801)"><g><path d="M 4.613281 0 L 4.117188 0 L 0.125 -5.90625 L 1.257812 -5.90625 L 4.367188 -1.304688 L 7.472656 -5.90625 L 8.621094 -5.90625 Z M 4.613281 0 "/></g></g></g><g fill="#e52024" fill-opacity="1"><g transform="translate(127.984296, 121.633801)"><g><path d="M 1.761719 0 L 1.761719 -5.90625 L 0.824219 -5.90625 L 0.824219 0 Z M 1.761719 0 "/></g></g></g><g fill="#e52024" fill-opacity="1"><g transform="translate(132.265914, 121.633801)"><g><path d="M 4.613281 0 L 4.117188 0 L 0.125 -5.90625 L 1.257812 -5.90625 L 4.367188 -1.304688 L 7.472656 -5.90625 L 8.621094 -5.90625 Z M 4.613281 0 "/></g></g></g><g fill="#e52024" fill-opacity="1"><g transform="translate(142.702748, 121.633801)"><g><path d="M 7.394531 0 L 0.824219 0 L 0.824219 -5.90625 L 7.394531 -5.90625 L 7.394531 -4.972656 L 1.761719 -4.972656 L 1.761719 -3.421875 L 6.726562 -3.421875 L 6.726562 -2.484375 L 1.761719 -2.484375 L 1.761719 -0.9375 L 7.394531 -0.9375 Z M 7.394531 0 "/></g></g></g><g fill="#e52024" fill-opacity="1"><g transform="translate(152.40672, 121.633801)"><g><path d="M 7.1875 0 L 7.1875 -0.9375 L 1.617188 -0.9375 C 1.578125 -0.9375 1.558594 -0.960938 1.558594 -1 L 1.558594 -1.511719 C 1.558594 -1.539062 1.570312 -1.558594 1.597656 -1.574219 L 6.988281 -3.464844 C 7.191406 -3.539062 7.351562 -3.660156 7.476562 -3.832031 C 7.597656 -4.003906 7.660156 -4.195312 7.660156 -4.410156 L 7.660156 -4.90625 C 7.660156 -5.183594 7.5625 -5.421875 7.363281 -5.617188 C 7.167969 -5.808594 6.933594 -5.90625 6.65625 -5.90625 L 1.085938 -5.90625 L 1.085938 -4.972656 L 6.65625 -4.972656 C 6.699219 -4.972656 6.71875 -4.949219 6.71875 -4.90625 L 6.71875 -4.410156 C 6.71875 -4.382812 6.707031 -4.363281 6.679688 -4.351562 L 1.289062 -2.457031 C 1.085938 -2.382812 0.921875 -2.257812 0.800781 -2.085938 C 0.679688 -1.914062 0.617188 -1.722656 0.617188 -1.511719 L 0.617188 -1 C 0.617188 -0.726562 0.714844 -0.492188 0.914062 -0.292969 C 1.109375 -0.0976562 1.34375 0 1.617188 0 Z M 7.1875 0 "/></g></g></g><g fill="#e52024" fill-opacity="1"><g transform="translate(162.374194, 121.633801)"><g/></g></g><g fill="#e52024" fill-opacity="1"><g transform="translate(166.161748, 121.633801)"><g><path d="M 6.234375 0 L 6.234375 -0.9375 L 1.761719 -0.9375 L 1.761719 -5.90625 L 0.824219 -5.90625 L 0.824219 0 Z M 6.234375 0 "/></g></g></g><g fill="#e52024" fill-opacity="1"><g transform="translate(174.375293, 121.633801)"><g><path d="M 7.394531 0 L 0.824219 0 L 0.824219 -5.90625 L 7.394531 -5.90625 L 7.394531 -4.972656 L 1.761719 -4.972656 L 1.761719 -3.421875 L 6.726562 -3.421875 L 6.726562 -2.484375 L 1.761719 -2.484375 L 1.761719 -0.9375 L 7.394531 -0.9375 Z M 7.394531 0 "/></g></g></g><g fill="#e52024" fill-opacity="1"><g transform="translate(184.079265, 121.633801)"><g/></g></g><g fill="#e52024" fill-opacity="1"><g transform="translate(187.866819, 121.633801)"><g><path d="M 5.78125 0 C 6.300781 0 6.742188 -0.183594 7.109375 -0.550781 C 7.476562 -0.917969 7.660156 -1.359375 7.660156 -1.878906 L 6.71875 -1.878906 C 6.71875 -1.617188 6.628906 -1.394531 6.445312 -1.214844 C 6.257812 -1.03125 6.039062 -0.9375 5.78125 -0.9375 L 2.496094 -0.9375 C 2.234375 -0.9375 2.015625 -1.03125 1.832031 -1.214844 C 1.648438 -1.394531 1.558594 -1.617188 1.558594 -1.878906 L 1.558594 -4.035156 C 1.558594 -4.292969 1.648438 -4.511719 1.832031 -4.695312 C 2.015625 -4.878906 2.234375 -4.972656 2.496094 -4.972656 L 5.78125 -4.972656 C 6.039062 -4.972656 6.257812 -4.878906 6.445312 -4.695312 C 6.628906 -4.511719 6.71875 -4.292969 6.71875 -4.035156 L 7.660156 -4.035156 C 7.660156 -4.550781 7.476562 -4.992188 7.109375 -5.359375 C 6.742188 -5.726562 6.300781 -5.90625 5.78125 -5.90625 L 2.496094 -5.90625 C 1.976562 -5.90625 1.535156 -5.726562 1.167969 -5.359375 C 0.800781 -4.992188 0.617188 -4.550781 0.617188 -4.035156 L 0.617188 -1.878906 C 0.617188 -1.359375 0.800781 -0.917969 1.167969 -0.550781 C 1.535156 -0.183594 1.976562 0 2.496094 0 Z M 5.78125 0 "/></g></g></g><g fill="#e52024" fill-opacity="1"><g transform="translate(197.834293, 121.633801)"><g><path d="M 5.78125 0 C 6.300781 0 6.742188 -0.183594 7.109375 -0.550781 C 7.476562 -0.917969 7.660156 -1.359375 7.660156 -1.878906 L 7.660156 -4.035156 C 7.660156 -4.550781 7.476562 -4.992188 7.109375 -5.359375 C 6.742188 -5.726562 6.300781 -5.90625 5.78125 -5.90625 L 2.496094 -5.90625 C 1.976562 -5.90625 1.535156 -5.726562 1.167969 -5.359375 C 0.800781 -4.992188 0.617188 -4.550781 0.617188 -4.035156 L 0.617188 -1.878906 C 0.617188 -1.359375 0.800781 -0.917969 1.167969 -0.550781 C 1.535156 -0.183594 1.976562 0 2.496094 0 Z M 5.78125 -0.9375 L 2.496094 -0.9375 C 2.234375 -0.9375 2.015625 -1.03125 1.832031 -1.214844 C 1.648438 -1.394531 1.558594 -1.617188 1.558594 -1.878906 L 1.558594 -4.035156 C 1.558594 -4.292969 1.648438 -4.511719 1.832031 -4.695312 C 2.015625 -4.878906 2.234375 -4.972656 2.496094 -4.972656 L 5.78125 -4.972656 C 6.039062 -4.972656 6.257812 -4.878906 6.445312 -4.695312 C 6.628906 -4.511719 6.71875 -4.292969 6.71875 -4.035156 L 6.71875 -1.878906 C 6.71875 -1.617188 6.628906 -1.394531 6.445312 -1.214844 C 6.257812 -1.03125 6.039062 -0.9375 5.78125 -0.9375 Z M 5.78125 -0.9375 "/></g></g></g><g fill="#e52024" fill-opacity="1"><g transform="translate(207.801766, 121.633801)"><g><path d="M 7.863281 0 L 7.226562 0 L 1.761719 -4.453125 L 1.761719 0 L 0.824219 0 L 0.824219 -5.90625 L 1.457031 -5.90625 L 6.925781 -1.457031 L 6.925781 -5.90625 L 7.863281 -5.90625 Z M 7.863281 0 "/></g></g></g><g fill="#e52024" fill-opacity="1"><g transform="translate(218.180959, 121.633801)"><g><path d="M 1.761719 0 L 0.824219 0 L 0.824219 -5.90625 L 7.394531 -5.90625 L 7.394531 -4.972656 L 1.761719 -4.972656 L 1.761719 -3.421875 L 6.726562 -3.421875 L 6.726562 -2.484375 L 1.761719 -2.484375 Z M 1.761719 0 "/></g></g></g><g fill="#e52024" fill-opacity="1"><g transform="translate(227.884932, 121.633801)"><g><path d="M 5.78125 0 C 6.300781 0 6.742188 -0.183594 7.109375 -0.550781 C 7.476562 -0.917969 7.660156 -1.359375 7.660156 -1.878906 L 7.660156 -4.035156 C 7.660156 -4.550781 7.476562 -4.992188 7.109375 -5.359375 C 6.742188 -5.726562 6.300781 -5.90625 5.78125 -5.90625 L 2.496094 -5.90625 C 1.976562 -5.90625 1.535156 -5.726562 1.167969 -5.359375 C 0.800781 -4.992188 0.617188 -4.550781 0.617188 -4.035156 L 0.617188 -1.878906 C 0.617188 -1.359375 0.800781 -0.917969 1.167969 -0.550781 C 1.535156 -0.183594 1.976562 0 2.496094 0 Z M 5.78125 -0.9375 L 2.496094 -0.9375 C 2.234375 -0.9375 2.015625 -1.03125 1.832031 -1.214844 C 1.648438 -1.394531 1.558594 -1.617188 1.558594 -1.878906 L 1.558594 -4.035156 C 1.558594 -4.292969 1.648438 -4.511719 1.832031 -4.695312 C 2.015625 -4.878906 2.234375 -4.972656 2.496094 -4.972656 L 5.78125 -4.972656 C 6.039062 -4.972656 6.257812 -4.878906 6.445312 -4.695312 C 6.628906 -4.511719 6.71875 -4.292969 6.71875 -4.035156 L 6.71875 -1.878906 C 6.71875 -1.617188 6.628906 -1.394531 6.445312 -1.214844 C 6.257812 -1.03125 6.039062 -0.9375 5.78125 -0.9375 Z M 5.78125 -0.9375 "/></g></g></g><g fill="#e52024" fill-opacity="1"><g transform="translate(237.852405, 121.633801)"><g><path d="M 7.863281 0 L 6.925781 0 L 6.925781 -1.664062 C 6.925781 -1.792969 6.878906 -1.902344 6.789062 -1.996094 C 6.695312 -2.089844 6.585938 -2.132812 6.457031 -2.132812 L 1.761719 -2.132812 L 1.761719 0 L 0.824219 0 L 0.824219 -5.90625 L 6.457031 -5.90625 C 6.84375 -5.90625 7.175781 -5.769531 7.449219 -5.496094 C 7.726562 -5.222656 7.863281 -4.890625 7.863281 -4.503906 L 7.863281 -3.542969 C 7.863281 -3.179688 7.742188 -2.867188 7.503906 -2.605469 C 7.742188 -2.335938 7.863281 -2.023438 7.863281 -1.664062 Z M 6.457031 -3.074219 C 6.585938 -3.074219 6.695312 -3.121094 6.789062 -3.210938 C 6.878906 -3.304688 6.925781 -3.414062 6.925781 -3.542969 L 6.925781 -4.503906 C 6.925781 -4.632812 6.878906 -4.742188 6.789062 -4.835938 C 6.695312 -4.925781 6.585938 -4.972656 6.457031 -4.972656 L 1.761719 -4.972656 L 1.761719 -3.074219 Z M 6.457031 -3.074219 "/></g></g></g><g fill="#e52024" fill-opacity="1"><g transform="translate(248.025738, 121.633801)"><g><path d="M 3.738281 0 L 2.796875 0 L 2.796875 -4.972656 L 0.125 -4.972656 L 0.125 -5.90625 L 6.414062 -5.90625 L 6.414062 -4.972656 L 3.738281 -4.972656 Z M 3.738281 0 "/></g></g></g><g fill="#e52024" fill-opacity="1"><g transform="translate(256.255753, 121.633801)"><g><path d="M 0.125 -0.75 L 1.0625 -0.75 L 1.0625 0 L 0.125 0 Z M 0.125 -0.75 "/></g></g></g><g clip-path="url(#36b14a35d0)"><path fill="#f5f6f5" d="M 165.269531 88.441406 L 165.269531 88.847656 L 157.355469 88.847656 L 159.890625 86.3125 C 159.992188 86.398438 160.105469 86.453125 160.238281 86.480469 C 160.367188 86.503906 160.496094 86.496094 160.621094 86.457031 C 160.746094 86.414062 160.855469 86.34375 160.941406 86.246094 C 161.03125 86.152344 161.09375 86.039062 161.125 85.910156 C 161.152344 85.78125 161.152344 85.652344 161.113281 85.523438 C 161.078125 85.398438 161.015625 85.289062 160.921875 85.195312 C 160.828125 85.101562 160.71875 85.035156 160.589844 85 C 160.460938 84.964844 160.335938 84.960938 160.207031 84.992188 C 160.078125 85.023438 159.964844 85.082031 159.867188 85.171875 C 159.769531 85.261719 159.699219 85.367188 159.660156 85.496094 C 159.617188 85.621094 159.609375 85.746094 159.632812 85.878906 C 159.660156 86.007812 159.714844 86.121094 159.800781 86.222656 L 154.753906 91.269531 L 141.207031 91.269531 L 141.207031 91.398438 L 154.808594 91.398438 L 157.226562 88.976562 L 159.289062 88.976562 L 160.238281 89.925781 L 162.296875 89.925781 L 163.242188 88.976562 L 165.269531 88.976562 L 165.269531 89.382812 L 166.214844 89.382812 L 166.214844 88.441406 Z M 166.085938 89.257812 L 165.394531 89.257812 L 165.394531 88.570312 L 166.085938 88.570312 Z M 166.085938 89.257812 " fill-opacity="1" fill-rule="nonzero"/></g><g clip-path="url(#ecd6d36c8e)"><path fill="#f5f6f5" d="M 250.980469 88.441406 L 250.980469 88.847656 L 243.066406 88.847656 L 245.601562 86.3125 C 245.703125 86.398438 245.816406 86.453125 245.949219 86.480469 C 246.078125 86.503906 246.207031 86.496094 246.332031 86.457031 C 246.457031 86.414062 246.5625 86.34375 246.652344 86.246094 C 246.742188 86.152344 246.804688 86.039062 246.832031 85.910156 C 246.863281 85.78125 246.863281 85.652344 246.824219 85.523438 C 246.789062 85.398438 246.726562 85.289062 246.632812 85.195312 C 246.539062 85.101562 246.425781 85.035156 246.300781 85 C 246.171875 84.964844 246.046875 84.960938 245.917969 84.992188 C 245.789062 85.023438 245.675781 85.082031 245.578125 85.171875 C 245.480469 85.261719 245.410156 85.367188 245.371094 85.496094 C 245.328125 85.621094 245.320312 85.746094 245.34375 85.878906 C 245.371094 86.007812 245.425781 86.121094 245.511719 86.222656 L 240.464844 91.269531 L 226.917969 91.269531 L 226.917969 91.398438 L 240.519531 91.398438 L 242.9375 88.976562 L 245 88.976562 L 245.945312 89.925781 L 248.007812 89.925781 L 248.953125 88.976562 L 250.980469 88.976562 L 250.980469 89.382812 L 251.925781 89.382812 L 251.925781 88.441406 Z M 251.796875 89.257812 L 251.105469 89.257812 L 251.105469 88.570312 L 251.796875 88.570312 Z M 251.796875 89.257812 " fill-opacity="1" fill-rule="nonzero"/></g></svg>