<svg xmlns="http://www.w3.org/2000/svg" xmlns:xlink="http://www.w3.org/1999/xlink" width="500" zoomAndPan="magnify" viewBox="0 0 375 149.999998" height="200" preserveAspectRatio="xMidYMid meet" version="1.0"><defs><g/><clipPath id="e651248b49"><path d="M 49.632812 40.195312 L 63.625 40.195312 L 63.625 62 L 49.632812 62 Z M 49.632812 40.195312 " clip-rule="nonzero"/></clipPath><clipPath id="ef3517d079"><path d="M 53 18.125 L 325.371094 18.125 L 325.371094 64 L 53 64 Z M 53 18.125 " clip-rule="nonzero"/></clipPath><clipPath id="f5d8b27538"><path d="M 148 63.773438 L 231.789062 63.773438 L 231.789062 74.945312 L 148 74.945312 Z M 148 63.773438 " clip-rule="nonzero"/></clipPath><clipPath id="fd8315e0fd"><path d="M 141.1875 91.09375 L 147.9375 91.09375 L 147.9375 91.515625 L 141.1875 91.515625 Z M 141.1875 91.09375 " clip-rule="nonzero"/></clipPath><clipPath id="46b79b91a6"><path d="M 226.898438 91.09375 L 233.648438 91.09375 L 233.648438 91.515625 L 226.898438 91.515625 Z M 226.898438 91.09375 " clip-rule="nonzero"/></clipPath></defs><rect x="-37.5" width="450" fill="#ffffff" y="-15" height="179.999997" fill-opacity="1"/><rect x="-37.5" width="450" fill="#000000" y="-15" height="179.999997" fill-opacity="1"/><path fill="#e52024" d="M 299.1875 51.828125 L 304.738281 57.921875 C 305.398438 58.648438 306.296875 59.113281 307.265625 59.230469 L 315.097656 60.203125 C 315.28125 60.226562 315.414062 60.386719 315.402344 60.570312 C 315.390625 60.75 315.238281 60.894531 315.054688 60.894531 L 304.808594 60.894531 C 304.695312 60.894531 304.585938 60.839844 304.523438 60.746094 L 298.648438 52.257812 C 298.542969 52.109375 298.574219 51.90625 298.71875 51.789062 C 298.859375 51.675781 299.066406 51.691406 299.1875 51.828125 " fill-opacity="1" fill-rule="nonzero"/><g clip-path="url(#e651248b49)"><path fill="#e52024" d="M 49.648438 61.726562 L 57.65625 45.003906 C 57.707031 44.902344 57.707031 44.792969 57.660156 44.695312 C 57.613281 44.59375 57.527344 44.515625 57.414062 44.476562 L 56.679688 44.214844 C 56.589844 44.183594 56.546875 44.09375 56.578125 44.015625 L 58.054688 40.449219 C 58.082031 40.378906 58.160156 40.335938 58.238281 40.347656 L 63.214844 41 C 63.273438 41.007812 63.320312 41.039062 63.347656 41.085938 C 63.371094 41.132812 63.371094 41.1875 63.339844 41.234375 L 49.957031 61.867188 C 49.925781 61.917969 49.867188 61.945312 49.808594 61.945312 C 49.78125 61.945312 49.753906 61.941406 49.730469 61.929688 C 49.648438 61.890625 49.613281 61.804688 49.648438 61.726562 " fill-opacity="1" fill-rule="nonzero"/></g><g clip-path="url(#ef3517d079)"><path fill="#ffffff" d="M 53.875 35.019531 L 54.113281 35.859375 C 54.773438 38.191406 57.140625 39.589844 59.5 39.042969 C 60.339844 38.847656 61.097656 38.679688 61.515625 38.59375 C 62.210938 38.476562 62.964844 38.367188 63.761719 38.242188 C 64.5625 38.125 65.40625 37.972656 66.320312 37.882812 C 67.234375 37.777344 68.195312 37.667969 69.199219 37.550781 C 70.210938 37.4375 71.28125 37.367188 72.386719 37.265625 C 72.941406 37.214844 73.503906 37.167969 74.085938 37.121094 C 74.664062 37.085938 75.257812 37.046875 75.859375 37.011719 C 77.066406 36.945312 78.3125 36.847656 79.609375 36.800781 C 84.78125 36.546875 90.660156 36.464844 97.078125 36.488281 C 103.496094 36.535156 110.460938 36.746094 117.828125 37.082031 C 125.195312 37.417969 132.96875 37.878906 141.007812 38.441406 C 145.027344 38.71875 149.113281 39.027344 153.25 39.351562 C 157.382812 39.6875 161.566406 40.0625 165.785156 40.445312 C 174.21875 41.210938 182.777344 42.054688 191.347656 42.921875 C 195.628906 43.355469 199.910156 43.789062 204.179688 44.222656 C 206.316406 44.433594 208.449219 44.644531 210.574219 44.851562 C 211.640625 44.949219 212.703125 45.046875 213.765625 45.144531 C 214.820312 45.246094 215.902344 45.320312 216.960938 45.398438 C 221.207031 45.738281 225.445312 45.921875 229.636719 45.925781 C 233.832031 45.953125 237.976562 45.769531 242.023438 45.445312 C 246.070312 45.121094 250.011719 44.699219 253.867188 44.398438 C 257.71875 44.089844 261.5 43.890625 265.164062 43.792969 C 266.085938 43.78125 267.003906 43.761719 267.917969 43.75 C 268.371094 43.746094 268.824219 43.738281 269.28125 43.730469 L 269.621094 43.726562 L 269.9375 43.730469 L 270.597656 43.746094 C 271.039062 43.757812 271.476562 43.757812 271.90625 43.78125 C 272.34375 43.8125 272.777344 43.84375 273.207031 43.871094 C 274.074219 43.917969 274.929688 44.042969 275.777344 44.136719 C 279.167969 44.570312 282.421875 45.273438 285.503906 46.097656 C 291.667969 47.753906 297.171875 49.851562 301.96875 51.871094 C 306.753906 53.9375 310.832031 55.953125 314.152344 57.6875 C 317.46875 59.414062 320.023438 60.871094 321.742188 61.894531 C 322.609375 62.40625 323.261719 62.804688 323.699219 63.070312 C 323.824219 63.148438 323.964844 63.1875 324.101562 63.1875 C 324.359375 63.1875 324.609375 63.058594 324.75 62.824219 C 325.371094 61.808594 325.03125 60.480469 323.996094 59.894531 C 323.746094 59.746094 323.460938 59.585938 323.15625 59.414062 C 321.378906 58.414062 318.765625 56.980469 315.378906 55.273438 C 311.992188 53.566406 307.824219 51.589844 302.941406 49.558594 C 298.058594 47.53125 292.457031 45.417969 286.121094 43.746094 C 282.953125 42.917969 279.605469 42.207031 276.074219 41.769531 C 275.1875 41.675781 274.300781 41.550781 273.394531 41.503906 C 272.941406 41.472656 272.488281 41.4375 272.03125 41.40625 C 271.570312 41.386719 271.113281 41.378906 270.648438 41.367188 L 269.957031 41.351562 L 269.597656 41.34375 L 269.257812 41.351562 C 268.804688 41.351562 268.351562 41.355469 267.894531 41.363281 C 266.980469 41.375 266.0625 41.386719 265.136719 41.398438 C 261.398438 41.484375 257.578125 41.675781 253.683594 41.972656 C 249.789062 42.269531 245.839844 42.679688 241.835938 42.984375 C 237.839844 43.296875 233.78125 43.46875 229.664062 43.421875 C 225.546875 43.375 221.378906 43.144531 217.179688 42.765625 C 216.125 42.671875 215.089844 42.589844 214.027344 42.476562 C 212.972656 42.367188 211.914062 42.257812 210.855469 42.148438 C 208.738281 41.914062 206.613281 41.679688 204.484375 41.445312 C 200.226562 40.964844 195.949219 40.484375 191.667969 40 C 174.554688 38.0625 157.410156 36.253906 141.304688 34.882812 C 137.933594 34.59375 134.605469 34.324219 131.332031 34.078125 C 131.054688 34.054688 130.769531 34.03125 130.488281 34.011719 C 130.878906 33.847656 131.308594 33.671875 131.773438 33.484375 C 136.320312 31.664062 144.367188 28.886719 156.890625 25.988281 C 170.113281 22.921875 185.171875 23.652344 195.886719 24.894531 C 203.34375 25.761719 210.6875 27.460938 217.753906 30.011719 C 217.789062 30.027344 217.816406 30.035156 217.855469 30.050781 C 226.367188 33.128906 233.238281 36.328125 237.964844 38.699219 C 240.324219 39.886719 242.152344 40.871094 243.386719 41.558594 C 243.789062 41.78125 244.160156 42.007812 244.457031 42.1875 C 244.460938 42.1875 244.460938 42.191406 244.464844 42.191406 C 244.472656 42.195312 244.480469 42.199219 244.484375 42.203125 C 244.789062 42.371094 245.214844 42.425781 245.273438 42.433594 C 245.277344 42.433594 245.28125 42.433594 245.28125 42.433594 C 245.921875 42.402344 247.148438 42.296875 248.023438 42.214844 C 248.0625 42.210938 248.101562 42.210938 248.140625 42.207031 C 248.152344 42.207031 248.160156 42.207031 248.171875 42.203125 C 248.8125 42.113281 248.574219 41.871094 248.390625 41.742188 C 248.378906 41.730469 248.367188 41.722656 248.359375 41.722656 C 248.339844 41.710938 248.320312 41.699219 248.304688 41.6875 C 248.289062 41.679688 248.273438 41.667969 248.253906 41.660156 C 248.253906 41.65625 248.253906 41.65625 248.253906 41.65625 C 247.394531 41.128906 246.09375 40.328125 246.019531 40.28125 C 245.695312 40.09375 245.21875 39.8125 244.59375 39.449219 C 243.34375 38.730469 241.5 37.703125 239.121094 36.464844 C 234.359375 33.992188 227.453125 30.652344 218.84375 27.402344 C 214.542969 25.773438 209.8125 24.183594 204.722656 22.789062 C 199.632812 21.390625 194.183594 20.179688 188.464844 19.355469 C 182.746094 18.566406 176.753906 18.175781 170.671875 18.429688 C 169.90625 18.453125 169.148438 18.53125 168.386719 18.578125 L 166.664062 18.707031 L 166.097656 18.761719 C 164.59375 18.914062 163.089844 19.0625 161.582031 19.210938 C 158.5625 19.511719 155.527344 19.855469 152.496094 20.179688 C 146.4375 20.863281 140.378906 21.574219 134.429688 22.320312 C 131.453125 22.691406 128.5 23.066406 125.585938 23.449219 C 122.667969 23.828125 119.792969 24.214844 116.957031 24.601562 C 114.128906 24.992188 111.34375 25.375 108.621094 25.753906 C 105.898438 26.125 103.238281 26.535156 100.648438 26.921875 C 99.898438 27.035156 99.160156 27.148438 98.417969 27.257812 C 97.882812 27.34375 97.347656 27.421875 96.820312 27.503906 L 131.261719 33.566406 C 131.261719 33.566406 131.226562 33.5625 131.152344 33.558594 C 131.132812 33.558594 131.109375 33.554688 131.085938 33.554688 C 129.492188 33.425781 117.402344 32.527344 102.613281 32.1875 C 86.132812 31.8125 66.292969 32.132812 53.886719 35.015625 C 53.882812 35.015625 53.878906 35.019531 53.875 35.019531 " fill-opacity="1" fill-rule="nonzero"/></g><path fill="#ffffff" d="M 215.167969 38.863281 L 215.167969 37.917969 C 215.167969 37.292969 215.507812 36.722656 216.054688 36.421875 L 217.921875 35.40625 C 218.601562 35.03125 219.410156 34.976562 220.132812 35.253906 L 228.011719 38.25 C 228.453125 38.417969 228.75 38.847656 228.75 39.320312 L 228.75 40.789062 C 228.75 40.914062 228.703125 41.039062 228.617188 41.132812 L 227.605469 42.273438 C 227.507812 42.382812 227.363281 42.449219 227.214844 42.449219 L 222.910156 42.449219 C 222.726562 42.449219 222.558594 42.351562 222.460938 42.195312 C 222.371094 42.039062 222.363281 41.84375 222.449219 41.683594 L 222.722656 41.167969 L 216.066406 39.941406 C 215.546875 39.847656 215.167969 39.394531 215.167969 38.863281 " fill-opacity="1" fill-rule="nonzero"/><path fill="#ffffff" d="M 125.609375 40.90625 L 131.128906 39.027344 C 131.285156 38.972656 131.464844 39.019531 131.554688 39.140625 C 131.644531 39.261719 131.617188 39.417969 131.488281 39.511719 L 128.53125 41.683594 C 128.285156 41.867188 128.21875 42.164062 128.371094 42.40625 L 141.964844 64.035156 L 148.613281 68.535156 C 148.757812 68.632812 148.785156 68.808594 148.671875 68.933594 C 148.605469 69.011719 148.5 69.054688 148.394531 69.054688 C 148.328125 69.054688 148.261719 69.035156 148.203125 69.003906 L 140.921875 64.945312 C 140.875 64.917969 140.835938 64.882812 140.808594 64.84375 L 125.4375 41.316406 C 125.390625 41.242188 125.382812 41.15625 125.414062 41.078125 C 125.449219 41 125.519531 40.9375 125.609375 40.90625 " fill-opacity="1" fill-rule="nonzero"/><g clip-path="url(#f5d8b27538)"><path fill="#ffffff" d="M 148.222656 63.910156 C 148.234375 63.832031 148.316406 63.777344 148.414062 63.789062 L 227.789062 71.976562 C 227.847656 71.984375 227.898438 72.011719 227.921875 72.058594 C 227.949219 72.101562 227.945312 72.152344 227.914062 72.195312 L 227.070312 73.347656 L 231.378906 74.664062 C 231.464844 74.691406 231.511719 74.765625 231.488281 74.835938 C 231.46875 74.902344 231.398438 74.945312 231.320312 74.945312 C 231.3125 74.945312 231.304688 74.945312 231.292969 74.945312 L 148.367188 64.074219 C 148.273438 64.0625 148.210938 63.988281 148.222656 63.910156 " fill-opacity="1" fill-rule="nonzero"/></g><path fill="#ffffff" d="M 271.195312 51.023438 C 280.035156 51.023438 288.289062 55.777344 292.738281 63.433594 C 292.871094 63.660156 292.804688 63.9375 292.582031 64.078125 C 292.496094 64.132812 292.40625 64.15625 292.316406 64.15625 C 292.167969 64.15625 292.019531 64.085938 291.921875 63.949219 C 287.246094 57.246094 279.304688 53.082031 271.195312 53.082031 C 263.890625 53.082031 256.335938 56.625 251.484375 62.328125 C 251.316406 62.527344 251.03125 62.558594 250.824219 62.398438 C 250.617188 62.238281 250.574219 61.957031 250.722656 61.742188 C 255.382812 55.027344 263.035156 51.023438 271.195312 51.023438 " fill-opacity="1" fill-rule="nonzero"/><path fill="#ffffff" d="M 92.199219 45.820312 C 101.039062 45.820312 109.296875 50.578125 113.746094 58.230469 C 113.875 58.457031 113.808594 58.738281 113.585938 58.878906 C 113.503906 58.929688 113.414062 58.957031 113.324219 58.957031 C 113.171875 58.957031 113.023438 58.882812 112.929688 58.75 C 108.253906 52.046875 100.3125 47.882812 92.199219 47.882812 C 84.894531 47.882812 77.34375 51.421875 72.492188 57.125 C 72.320312 57.324219 72.039062 57.355469 71.828125 57.195312 C 71.625 57.035156 71.578125 56.753906 71.726562 56.539062 C 76.386719 49.828125 84.042969 45.820312 92.199219 45.820312 " fill-opacity="1" fill-rule="nonzero"/><path fill="#ffffff" d="M 248.023438 42.214844 L 248.023438 42.21875 C 248.0625 42.214844 248.105469 42.210938 248.140625 42.207031 C 248.101562 42.210938 248.0625 42.210938 248.023438 42.214844 " fill-opacity="1" fill-rule="nonzero"/><g fill="#ffffff" fill-opacity="1"><g transform="translate(102.515766, 97.355083)"><g><path d="M 16.90625 0 L 14.890625 0 L 14.890625 -3.578125 C 14.890625 -3.859375 14.789062 -4.097656 14.59375 -4.296875 C 14.394531 -4.492188 14.15625 -4.59375 13.875 -4.59375 L 3.796875 -4.59375 L 3.796875 0 L 1.765625 0 L 1.765625 -12.703125 L 13.875 -12.703125 C 14.707031 -12.703125 15.421875 -12.40625 16.015625 -11.8125 C 16.609375 -11.226562 16.90625 -10.519531 16.90625 -9.6875 L 16.90625 -7.625 C 16.90625 -6.84375 16.644531 -6.164062 16.125 -5.59375 C 16.644531 -5.019531 16.90625 -4.347656 16.90625 -3.578125 Z M 13.875 -6.609375 C 14.15625 -6.609375 14.394531 -6.707031 14.59375 -6.90625 C 14.789062 -7.101562 14.890625 -7.34375 14.890625 -7.625 L 14.890625 -9.6875 C 14.890625 -9.957031 14.789062 -10.191406 14.59375 -10.390625 C 14.394531 -10.585938 14.15625 -10.6875 13.875 -10.6875 L 3.796875 -10.6875 L 3.796875 -6.609375 Z M 13.875 -6.609375 "/></g></g></g><g fill="#ffffff" fill-opacity="1"><g transform="translate(126.815388, 97.355083)"><g><path d="M 15.90625 0 L 1.765625 0 L 1.765625 -12.703125 L 15.90625 -12.703125 L 15.90625 -10.6875 L 3.796875 -10.6875 L 3.796875 -7.359375 L 14.46875 -7.359375 L 14.46875 -5.34375 L 3.796875 -5.34375 L 3.796875 -2.015625 L 15.90625 -2.015625 Z M 15.90625 0 "/></g></g></g><g fill="#ffffff" fill-opacity="1"><g transform="translate(150.105249, 97.355083)"><g><path d="M 16.90625 0 L 15.53125 0 L 3.796875 -9.578125 L 3.796875 0 L 1.765625 0 L 1.765625 -12.703125 L 3.140625 -12.703125 L 14.890625 -3.140625 L 14.890625 -12.703125 L 16.90625 -12.703125 Z M 16.90625 0 "/></g></g></g><g fill="#ffffff" fill-opacity="1"><g transform="translate(174.847752, 97.355083)"><g><path d="M 8.03125 0 L 6.015625 0 L 6.015625 -10.6875 L 0.265625 -10.6875 L 0.265625 -12.703125 L 13.796875 -12.703125 L 13.796875 -10.6875 L 8.03125 -10.6875 Z M 8.03125 0 "/></g></g></g><g fill="#ffffff" fill-opacity="1"><g transform="translate(194.966608, 97.355083)"><g/></g></g><g fill="#ffffff" fill-opacity="1"><g transform="translate(205.52817, 97.355083)"><g><path d="M 12.421875 0 C 13.535156 0 14.488281 -0.390625 15.28125 -1.171875 C 16.070312 -1.960938 16.46875 -2.921875 16.46875 -4.046875 L 14.453125 -4.046875 C 14.453125 -3.484375 14.253906 -3.003906 13.859375 -2.609375 C 13.460938 -2.210938 12.984375 -2.015625 12.421875 -2.015625 L 5.375 -2.015625 C 4.8125 -2.015625 4.332031 -2.210938 3.9375 -2.609375 C 3.539062 -3.003906 3.34375 -3.484375 3.34375 -4.046875 L 3.34375 -8.671875 C 3.34375 -9.222656 3.539062 -9.695312 3.9375 -10.09375 C 4.332031 -10.488281 4.8125 -10.6875 5.375 -10.6875 L 12.421875 -10.6875 C 12.984375 -10.6875 13.460938 -10.488281 13.859375 -10.09375 C 14.253906 -9.695312 14.453125 -9.222656 14.453125 -8.671875 L 16.46875 -8.671875 C 16.46875 -9.785156 16.070312 -10.734375 15.28125 -11.515625 C 14.488281 -12.304688 13.535156 -12.703125 12.421875 -12.703125 L 5.375 -12.703125 C 4.25 -12.703125 3.289062 -12.304688 2.5 -11.515625 C 1.71875 -10.734375 1.328125 -9.785156 1.328125 -8.671875 L 1.328125 -4.046875 C 1.328125 -2.921875 1.71875 -1.960938 2.5 -1.171875 C 3.289062 -0.390625 4.25 0 5.375 0 Z M 12.421875 0 "/></g></g></g><g fill="#ffffff" fill-opacity="1"><g transform="translate(229.38491, 97.355083)"><g><path d="M 18.515625 0 L 16.078125 0 L 14.21875 -2.75 L 4.578125 -2.75 L 2.703125 0 L 0.265625 0 L 8.859375 -12.703125 L 9.921875 -12.703125 Z M 12.859375 -4.78125 L 9.390625 -9.890625 L 5.921875 -4.78125 Z M 12.859375 -4.78125 "/></g></g></g><g fill="#ffffff" fill-opacity="1"><g transform="translate(254.233696, 97.355083)"><g><path d="M 16.90625 0 L 14.890625 0 L 14.890625 -3.578125 C 14.890625 -3.859375 14.789062 -4.097656 14.59375 -4.296875 C 14.394531 -4.492188 14.15625 -4.59375 13.875 -4.59375 L 3.796875 -4.59375 L 3.796875 0 L 1.765625 0 L 1.765625 -12.703125 L 13.875 -12.703125 C 14.707031 -12.703125 15.421875 -12.40625 16.015625 -11.8125 C 16.609375 -11.226562 16.90625 -10.519531 16.90625 -9.6875 L 16.90625 -7.625 C 16.90625 -6.84375 16.644531 -6.164062 16.125 -5.59375 C 16.644531 -5.019531 16.90625 -4.347656 16.90625 -3.578125 Z M 13.875 -6.609375 C 14.15625 -6.609375 14.394531 -6.707031 14.59375 -6.90625 C 14.789062 -7.101562 14.890625 -7.34375 14.890625 -7.625 L 14.890625 -9.6875 C 14.890625 -9.957031 14.789062 -10.191406 14.59375 -10.390625 C 14.394531 -10.585938 14.15625 -10.6875 13.875 -10.6875 L 3.796875 -10.6875 L 3.796875 -6.609375 Z M 13.875 -6.609375 "/></g></g></g><g fill="#e52024" fill-opacity="1"><g transform="translate(107.607588, 110.205922)"><g><path d="M 6.234375 0 L 6.234375 -0.9375 L 1.765625 -0.9375 L 1.765625 -5.90625 L 0.828125 -5.90625 L 0.828125 0 Z M 6.234375 0 "/></g></g></g><g fill="#e52024" fill-opacity="1"><g transform="translate(115.821136, 110.205922)"><g><path d="M 5.78125 0 C 6.300781 0 6.742188 -0.179688 7.109375 -0.546875 C 7.472656 -0.910156 7.65625 -1.351562 7.65625 -1.875 L 7.65625 -4.03125 C 7.65625 -4.550781 7.472656 -4.992188 7.109375 -5.359375 C 6.742188 -5.722656 6.300781 -5.90625 5.78125 -5.90625 L 2.5 -5.90625 C 1.976562 -5.90625 1.535156 -5.722656 1.171875 -5.359375 C 0.804688 -4.992188 0.625 -4.550781 0.625 -4.03125 L 0.625 -1.875 C 0.625 -1.351562 0.804688 -0.910156 1.171875 -0.546875 C 1.535156 -0.179688 1.976562 0 2.5 0 Z M 5.78125 -0.9375 L 2.5 -0.9375 C 2.238281 -0.9375 2.015625 -1.023438 1.828125 -1.203125 C 1.648438 -1.390625 1.5625 -1.613281 1.5625 -1.875 L 1.5625 -4.03125 C 1.5625 -4.289062 1.648438 -4.507812 1.828125 -4.6875 C 2.015625 -4.875 2.238281 -4.96875 2.5 -4.96875 L 5.78125 -4.96875 C 6.039062 -4.96875 6.257812 -4.875 6.4375 -4.6875 C 6.625 -4.507812 6.71875 -4.289062 6.71875 -4.03125 L 6.71875 -1.875 C 6.71875 -1.613281 6.625 -1.390625 6.4375 -1.203125 C 6.257812 -1.023438 6.039062 -0.9375 5.78125 -0.9375 Z M 5.78125 -0.9375 "/></g></g></g><g fill="#e52024" fill-opacity="1"><g transform="translate(125.788611, 110.205922)"><g><path d="M 5.78125 0 C 6.300781 0 6.742188 -0.179688 7.109375 -0.546875 C 7.472656 -0.910156 7.65625 -1.351562 7.65625 -1.875 L 7.65625 -5.90625 L 6.71875 -5.90625 L 6.71875 -1.875 C 6.71875 -1.613281 6.625 -1.390625 6.4375 -1.203125 C 6.257812 -1.023438 6.039062 -0.9375 5.78125 -0.9375 L 2.5 -0.9375 C 2.238281 -0.9375 2.015625 -1.023438 1.828125 -1.203125 C 1.648438 -1.390625 1.5625 -1.613281 1.5625 -1.875 L 1.5625 -5.90625 L 0.625 -5.90625 L 0.625 -1.875 C 0.625 -1.351562 0.804688 -0.910156 1.171875 -0.546875 C 1.535156 -0.179688 1.976562 0 2.5 0 Z M 5.78125 0 "/></g></g></g><g fill="#e52024" fill-opacity="1"><g transform="translate(135.756087, 110.205922)"><g><path d="M 7.390625 0 L 0.828125 0 L 0.828125 -5.90625 L 7.390625 -5.90625 L 7.390625 -4.96875 L 1.765625 -4.96875 L 1.765625 -3.421875 L 6.734375 -3.421875 L 6.734375 -2.484375 L 1.765625 -2.484375 L 1.765625 -0.9375 L 7.390625 -0.9375 Z M 7.390625 0 "/></g></g></g><g fill="#e52024" fill-opacity="1"><g transform="translate(145.460062, 110.205922)"><g><path d="M 7.1875 0 L 7.1875 -0.9375 L 1.625 -0.9375 C 1.582031 -0.9375 1.5625 -0.957031 1.5625 -1 L 1.5625 -1.515625 C 1.5625 -1.535156 1.570312 -1.554688 1.59375 -1.578125 L 6.984375 -3.46875 C 7.191406 -3.539062 7.351562 -3.660156 7.46875 -3.828125 C 7.59375 -4.003906 7.65625 -4.195312 7.65625 -4.40625 L 7.65625 -4.90625 C 7.65625 -5.1875 7.554688 -5.421875 7.359375 -5.609375 C 7.160156 -5.804688 6.925781 -5.90625 6.65625 -5.90625 L 1.09375 -5.90625 L 1.09375 -4.96875 L 6.65625 -4.96875 C 6.695312 -4.96875 6.71875 -4.945312 6.71875 -4.90625 L 6.71875 -4.40625 C 6.71875 -4.382812 6.703125 -4.363281 6.671875 -4.34375 L 1.296875 -2.453125 C 1.085938 -2.378906 0.921875 -2.253906 0.796875 -2.078125 C 0.679688 -1.910156 0.625 -1.722656 0.625 -1.515625 L 0.625 -1 C 0.625 -0.726562 0.71875 -0.492188 0.90625 -0.296875 C 1.101562 -0.0976562 1.34375 0 1.625 0 Z M 7.1875 0 "/></g></g></g><g fill="#e52024" fill-opacity="1"><g transform="translate(155.427535, 110.205922)"><g/></g></g><g fill="#e52024" fill-opacity="1"><g transform="translate(159.215089, 110.205922)"><g><path d="M 6.234375 0 L 6.234375 -0.9375 L 1.765625 -0.9375 L 1.765625 -5.90625 L 0.828125 -5.90625 L 0.828125 0 Z M 6.234375 0 "/></g></g></g><g fill="#e52024" fill-opacity="1"><g transform="translate(167.428635, 110.205922)"><g><path d="M 1.1875 -4.609375 L 0.71875 -4.609375 L 0.71875 -5.15625 L 0.25 -5.15625 L 0.25 -5.90625 L 1.1875 -5.90625 Z M 1.1875 -4.609375 "/></g></g></g><g fill="#e52024" fill-opacity="1"><g transform="translate(170.557436, 110.205922)"><g><path d="M 7.390625 0 L 0.828125 0 L 0.828125 -5.90625 L 7.390625 -5.90625 L 7.390625 -4.96875 L 1.765625 -4.96875 L 1.765625 -3.421875 L 6.734375 -3.421875 L 6.734375 -2.484375 L 1.765625 -2.484375 L 1.765625 -0.9375 L 7.390625 -0.9375 Z M 7.390625 0 "/></g></g></g><g fill="#e52024" fill-opacity="1"><g transform="translate(180.261409, 110.205922)"><g><path d="M 8.265625 0 L 6.828125 0 L 4.1875 -2.328125 L 1.546875 0 L 0.125 0 L 3.484375 -2.953125 L 0.125 -5.90625 L 1.546875 -5.90625 L 4.1875 -3.578125 L 6.828125 -5.90625 L 8.265625 -5.90625 L 4.890625 -2.953125 Z M 8.265625 0 "/></g></g></g><g fill="#e52024" fill-opacity="1"><g transform="translate(190.335929, 110.205922)"><g><path d="M 5.78125 0 C 6.300781 0 6.742188 -0.179688 7.109375 -0.546875 C 7.472656 -0.910156 7.65625 -1.351562 7.65625 -1.875 L 6.71875 -1.875 C 6.71875 -1.613281 6.625 -1.390625 6.4375 -1.203125 C 6.257812 -1.023438 6.039062 -0.9375 5.78125 -0.9375 L 2.5 -0.9375 C 2.238281 -0.9375 2.015625 -1.023438 1.828125 -1.203125 C 1.648438 -1.390625 1.5625 -1.613281 1.5625 -1.875 L 1.5625 -4.03125 C 1.5625 -4.289062 1.648438 -4.507812 1.828125 -4.6875 C 2.015625 -4.875 2.238281 -4.96875 2.5 -4.96875 L 5.78125 -4.96875 C 6.039062 -4.96875 6.257812 -4.875 6.4375 -4.6875 C 6.625 -4.507812 6.71875 -4.289062 6.71875 -4.03125 L 7.65625 -4.03125 C 7.65625 -4.550781 7.472656 -4.992188 7.109375 -5.359375 C 6.742188 -5.722656 6.300781 -5.90625 5.78125 -5.90625 L 2.5 -5.90625 C 1.976562 -5.90625 1.535156 -5.722656 1.171875 -5.359375 C 0.804688 -4.992188 0.625 -4.550781 0.625 -4.03125 L 0.625 -1.875 C 0.625 -1.351562 0.804688 -0.910156 1.171875 -0.546875 C 1.535156 -0.179688 1.976562 0 2.5 0 Z M 5.78125 0 "/></g></g></g><g fill="#e52024" fill-opacity="1"><g transform="translate(200.303403, 110.205922)"><g><path d="M 7.390625 0 L 0.828125 0 L 0.828125 -5.90625 L 7.390625 -5.90625 L 7.390625 -4.96875 L 1.765625 -4.96875 L 1.765625 -3.421875 L 6.734375 -3.421875 L 6.734375 -2.484375 L 1.765625 -2.484375 L 1.765625 -0.9375 L 7.390625 -0.9375 Z M 7.390625 0 "/></g></g></g><g fill="#e52024" fill-opacity="1"><g transform="translate(210.007375, 110.205922)"><g><path d="M 6.234375 0 L 6.234375 -0.9375 L 1.765625 -0.9375 L 1.765625 -5.90625 L 0.828125 -5.90625 L 0.828125 0 Z M 6.234375 0 "/></g></g></g><g fill="#e52024" fill-opacity="1"><g transform="translate(218.22092, 110.205922)"><g><path d="M 6.234375 0 L 6.234375 -0.9375 L 1.765625 -0.9375 L 1.765625 -5.90625 L 0.828125 -5.90625 L 0.828125 0 Z M 6.234375 0 "/></g></g></g><g fill="#e52024" fill-opacity="1"><g transform="translate(226.434466, 110.205922)"><g><path d="M 7.390625 0 L 0.828125 0 L 0.828125 -5.90625 L 7.390625 -5.90625 L 7.390625 -4.96875 L 1.765625 -4.96875 L 1.765625 -3.421875 L 6.734375 -3.421875 L 6.734375 -2.484375 L 1.765625 -2.484375 L 1.765625 -0.9375 L 7.390625 -0.9375 Z M 7.390625 0 "/></g></g></g><g fill="#e52024" fill-opacity="1"><g transform="translate(236.138438, 110.205922)"><g><path d="M 7.859375 0 L 7.21875 0 L 1.765625 -4.453125 L 1.765625 0 L 0.828125 0 L 0.828125 -5.90625 L 1.453125 -5.90625 L 6.921875 -1.453125 L 6.921875 -5.90625 L 7.859375 -5.90625 Z M 7.859375 0 "/></g></g></g><g fill="#e52024" fill-opacity="1"><g transform="translate(246.517632, 110.205922)"><g><path d="M 5.78125 0 C 6.300781 0 6.742188 -0.179688 7.109375 -0.546875 C 7.472656 -0.910156 7.65625 -1.351562 7.65625 -1.875 L 6.71875 -1.875 C 6.71875 -1.613281 6.625 -1.390625 6.4375 -1.203125 C 6.257812 -1.023438 6.039062 -0.9375 5.78125 -0.9375 L 2.5 -0.9375 C 2.238281 -0.9375 2.015625 -1.023438 1.828125 -1.203125 C 1.648438 -1.390625 1.5625 -1.613281 1.5625 -1.875 L 1.5625 -4.03125 C 1.5625 -4.289062 1.648438 -4.507812 1.828125 -4.6875 C 2.015625 -4.875 2.238281 -4.96875 2.5 -4.96875 L 5.78125 -4.96875 C 6.039062 -4.96875 6.257812 -4.875 6.4375 -4.6875 C 6.625 -4.507812 6.71875 -4.289062 6.71875 -4.03125 L 7.65625 -4.03125 C 7.65625 -4.550781 7.472656 -4.992188 7.109375 -5.359375 C 6.742188 -5.722656 6.300781 -5.90625 5.78125 -5.90625 L 2.5 -5.90625 C 1.976562 -5.90625 1.535156 -5.722656 1.171875 -5.359375 C 0.804688 -4.992188 0.625 -4.550781 0.625 -4.03125 L 0.625 -1.875 C 0.625 -1.351562 0.804688 -0.910156 1.171875 -0.546875 C 1.535156 -0.179688 1.976562 0 2.5 0 Z M 5.78125 0 "/></g></g></g><g fill="#e52024" fill-opacity="1"><g transform="translate(256.485105, 110.205922)"><g><path d="M 7.390625 0 L 0.828125 0 L 0.828125 -5.90625 L 7.390625 -5.90625 L 7.390625 -4.96875 L 1.765625 -4.96875 L 1.765625 -3.421875 L 6.734375 -3.421875 L 6.734375 -2.484375 L 1.765625 -2.484375 L 1.765625 -0.9375 L 7.390625 -0.9375 Z M 7.390625 0 "/></g></g></g><g fill="#e52024" fill-opacity="1"><g transform="translate(266.189077, 110.205922)"><g><path d="M 1.0625 0.546875 L 0.59375 0.546875 L 0.59375 0 L 0.125 0 L 0.125 -0.75 L 1.0625 -0.75 Z M 1.0625 0.546875 "/></g></g></g><g fill="#e52024" fill-opacity="1"><g transform="translate(117.547461, 121.633801)"><g><path d="M 4.609375 0 L 4.109375 0 L 0.125 -5.90625 L 1.25 -5.90625 L 4.359375 -1.3125 L 7.46875 -5.90625 L 8.625 -5.90625 Z M 4.609375 0 "/></g></g></g><g fill="#e52024" fill-opacity="1"><g transform="translate(127.984298, 121.633801)"><g><path d="M 1.765625 0 L 1.765625 -5.90625 L 0.828125 -5.90625 L 0.828125 0 Z M 1.765625 0 "/></g></g></g><g fill="#e52024" fill-opacity="1"><g transform="translate(132.265919, 121.633801)"><g><path d="M 4.609375 0 L 4.109375 0 L 0.125 -5.90625 L 1.25 -5.90625 L 4.359375 -1.3125 L 7.46875 -5.90625 L 8.625 -5.90625 Z M 4.609375 0 "/></g></g></g><g fill="#e52024" fill-opacity="1"><g transform="translate(142.702755, 121.633801)"><g><path d="M 7.390625 0 L 0.828125 0 L 0.828125 -5.90625 L 7.390625 -5.90625 L 7.390625 -4.96875 L 1.765625 -4.96875 L 1.765625 -3.421875 L 6.734375 -3.421875 L 6.734375 -2.484375 L 1.765625 -2.484375 L 1.765625 -0.9375 L 7.390625 -0.9375 Z M 7.390625 0 "/></g></g></g><g fill="#e52024" fill-opacity="1"><g transform="translate(152.40673, 121.633801)"><g><path d="M 7.1875 0 L 7.1875 -0.9375 L 1.625 -0.9375 C 1.582031 -0.9375 1.5625 -0.957031 1.5625 -1 L 1.5625 -1.515625 C 1.5625 -1.535156 1.570312 -1.554688 1.59375 -1.578125 L 6.984375 -3.46875 C 7.191406 -3.539062 7.351562 -3.660156 7.46875 -3.828125 C 7.59375 -4.003906 7.65625 -4.195312 7.65625 -4.40625 L 7.65625 -4.90625 C 7.65625 -5.1875 7.554688 -5.421875 7.359375 -5.609375 C 7.160156 -5.804688 6.925781 -5.90625 6.65625 -5.90625 L 1.09375 -5.90625 L 1.09375 -4.96875 L 6.65625 -4.96875 C 6.695312 -4.96875 6.71875 -4.945312 6.71875 -4.90625 L 6.71875 -4.40625 C 6.71875 -4.382812 6.703125 -4.363281 6.671875 -4.34375 L 1.296875 -2.453125 C 1.085938 -2.378906 0.921875 -2.253906 0.796875 -2.078125 C 0.679688 -1.910156 0.625 -1.722656 0.625 -1.515625 L 0.625 -1 C 0.625 -0.726562 0.71875 -0.492188 0.90625 -0.296875 C 1.101562 -0.0976562 1.34375 0 1.625 0 Z M 7.1875 0 "/></g></g></g><g fill="#e52024" fill-opacity="1"><g transform="translate(162.374203, 121.633801)"><g/></g></g><g fill="#e52024" fill-opacity="1"><g transform="translate(166.161757, 121.633801)"><g><path d="M 6.234375 0 L 6.234375 -0.9375 L 1.765625 -0.9375 L 1.765625 -5.90625 L 0.828125 -5.90625 L 0.828125 0 Z M 6.234375 0 "/></g></g></g><g fill="#e52024" fill-opacity="1"><g transform="translate(174.375303, 121.633801)"><g><path d="M 7.390625 0 L 0.828125 0 L 0.828125 -5.90625 L 7.390625 -5.90625 L 7.390625 -4.96875 L 1.765625 -4.96875 L 1.765625 -3.421875 L 6.734375 -3.421875 L 6.734375 -2.484375 L 1.765625 -2.484375 L 1.765625 -0.9375 L 7.390625 -0.9375 Z M 7.390625 0 "/></g></g></g><g fill="#e52024" fill-opacity="1"><g transform="translate(184.079275, 121.633801)"><g/></g></g><g fill="#e52024" fill-opacity="1"><g transform="translate(187.866829, 121.633801)"><g><path d="M 5.78125 0 C 6.300781 0 6.742188 -0.179688 7.109375 -0.546875 C 7.472656 -0.910156 7.65625 -1.351562 7.65625 -1.875 L 6.71875 -1.875 C 6.71875 -1.613281 6.625 -1.390625 6.4375 -1.203125 C 6.257812 -1.023438 6.039062 -0.9375 5.78125 -0.9375 L 2.5 -0.9375 C 2.238281 -0.9375 2.015625 -1.023438 1.828125 -1.203125 C 1.648438 -1.390625 1.5625 -1.613281 1.5625 -1.875 L 1.5625 -4.03125 C 1.5625 -4.289062 1.648438 -4.507812 1.828125 -4.6875 C 2.015625 -4.875 2.238281 -4.96875 2.5 -4.96875 L 5.78125 -4.96875 C 6.039062 -4.96875 6.257812 -4.875 6.4375 -4.6875 C 6.625 -4.507812 6.71875 -4.289062 6.71875 -4.03125 L 7.65625 -4.03125 C 7.65625 -4.550781 7.472656 -4.992188 7.109375 -5.359375 C 6.742188 -5.722656 6.300781 -5.90625 5.78125 -5.90625 L 2.5 -5.90625 C 1.976562 -5.90625 1.535156 -5.722656 1.171875 -5.359375 C 0.804688 -4.992188 0.625 -4.550781 0.625 -4.03125 L 0.625 -1.875 C 0.625 -1.351562 0.804688 -0.910156 1.171875 -0.546875 C 1.535156 -0.179688 1.976562 0 2.5 0 Z M 5.78125 0 "/></g></g></g><g fill="#e52024" fill-opacity="1"><g transform="translate(197.834302, 121.633801)"><g><path d="M 5.78125 0 C 6.300781 0 6.742188 -0.179688 7.109375 -0.546875 C 7.472656 -0.910156 7.65625 -1.351562 7.65625 -1.875 L 7.65625 -4.03125 C 7.65625 -4.550781 7.472656 -4.992188 7.109375 -5.359375 C 6.742188 -5.722656 6.300781 -5.90625 5.78125 -5.90625 L 2.5 -5.90625 C 1.976562 -5.90625 1.535156 -5.722656 1.171875 -5.359375 C 0.804688 -4.992188 0.625 -4.550781 0.625 -4.03125 L 0.625 -1.875 C 0.625 -1.351562 0.804688 -0.910156 1.171875 -0.546875 C 1.535156 -0.179688 1.976562 0 2.5 0 Z M 5.78125 -0.9375 L 2.5 -0.9375 C 2.238281 -0.9375 2.015625 -1.023438 1.828125 -1.203125 C 1.648438 -1.390625 1.5625 -1.613281 1.5625 -1.875 L 1.5625 -4.03125 C 1.5625 -4.289062 1.648438 -4.507812 1.828125 -4.6875 C 2.015625 -4.875 2.238281 -4.96875 2.5 -4.96875 L 5.78125 -4.96875 C 6.039062 -4.96875 6.257812 -4.875 6.4375 -4.6875 C 6.625 -4.507812 6.71875 -4.289062 6.71875 -4.03125 L 6.71875 -1.875 C 6.71875 -1.613281 6.625 -1.390625 6.4375 -1.203125 C 6.257812 -1.023438 6.039062 -0.9375 5.78125 -0.9375 Z M 5.78125 -0.9375 "/></g></g></g><g fill="#e52024" fill-opacity="1"><g transform="translate(207.801776, 121.633801)"><g><path d="M 7.859375 0 L 7.21875 0 L 1.765625 -4.453125 L 1.765625 0 L 0.828125 0 L 0.828125 -5.90625 L 1.453125 -5.90625 L 6.921875 -1.453125 L 6.921875 -5.90625 L 7.859375 -5.90625 Z M 7.859375 0 "/></g></g></g><g fill="#e52024" fill-opacity="1"><g transform="translate(218.180969, 121.633801)"><g><path d="M 1.765625 0 L 0.828125 0 L 0.828125 -5.90625 L 7.390625 -5.90625 L 7.390625 -4.96875 L 1.765625 -4.96875 L 1.765625 -3.421875 L 6.734375 -3.421875 L 6.734375 -2.484375 L 1.765625 -2.484375 Z M 1.765625 0 "/></g></g></g><g fill="#e52024" fill-opacity="1"><g transform="translate(227.884941, 121.633801)"><g><path d="M 5.78125 0 C 6.300781 0 6.742188 -0.179688 7.109375 -0.546875 C 7.472656 -0.910156 7.65625 -1.351562 7.65625 -1.875 L 7.65625 -4.03125 C 7.65625 -4.550781 7.472656 -4.992188 7.109375 -5.359375 C 6.742188 -5.722656 6.300781 -5.90625 5.78125 -5.90625 L 2.5 -5.90625 C 1.976562 -5.90625 1.535156 -5.722656 1.171875 -5.359375 C 0.804688 -4.992188 0.625 -4.550781 0.625 -4.03125 L 0.625 -1.875 C 0.625 -1.351562 0.804688 -0.910156 1.171875 -0.546875 C 1.535156 -0.179688 1.976562 0 2.5 0 Z M 5.78125 -0.9375 L 2.5 -0.9375 C 2.238281 -0.9375 2.015625 -1.023438 1.828125 -1.203125 C 1.648438 -1.390625 1.5625 -1.613281 1.5625 -1.875 L 1.5625 -4.03125 C 1.5625 -4.289062 1.648438 -4.507812 1.828125 -4.6875 C 2.015625 -4.875 2.238281 -4.96875 2.5 -4.96875 L 5.78125 -4.96875 C 6.039062 -4.96875 6.257812 -4.875 6.4375 -4.6875 C 6.625 -4.507812 6.71875 -4.289062 6.71875 -4.03125 L 6.71875 -1.875 C 6.71875 -1.613281 6.625 -1.390625 6.4375 -1.203125 C 6.257812 -1.023438 6.039062 -0.9375 5.78125 -0.9375 Z M 5.78125 -0.9375 "/></g></g></g><g fill="#e52024" fill-opacity="1"><g transform="translate(237.852415, 121.633801)"><g><path d="M 7.859375 0 L 6.921875 0 L 6.921875 -1.671875 C 6.921875 -1.796875 6.875 -1.90625 6.78125 -2 C 6.695312 -2.09375 6.585938 -2.140625 6.453125 -2.140625 L 1.765625 -2.140625 L 1.765625 0 L 0.828125 0 L 0.828125 -5.90625 L 6.453125 -5.90625 C 6.835938 -5.90625 7.164062 -5.765625 7.4375 -5.484375 C 7.71875 -5.210938 7.859375 -4.882812 7.859375 -4.5 L 7.859375 -3.546875 C 7.859375 -3.179688 7.738281 -2.867188 7.5 -2.609375 C 7.738281 -2.335938 7.859375 -2.023438 7.859375 -1.671875 Z M 6.453125 -3.078125 C 6.585938 -3.078125 6.695312 -3.117188 6.78125 -3.203125 C 6.875 -3.296875 6.921875 -3.410156 6.921875 -3.546875 L 6.921875 -4.5 C 6.921875 -4.632812 6.875 -4.742188 6.78125 -4.828125 C 6.695312 -4.921875 6.585938 -4.96875 6.453125 -4.96875 L 1.765625 -4.96875 L 1.765625 -3.078125 Z M 6.453125 -3.078125 "/></g></g></g><g fill="#e52024" fill-opacity="1"><g transform="translate(248.025748, 121.633801)"><g><path d="M 3.734375 0 L 2.796875 0 L 2.796875 -4.96875 L 0.125 -4.96875 L 0.125 -5.90625 L 6.421875 -5.90625 L 6.421875 -4.96875 L 3.734375 -4.96875 Z M 3.734375 0 "/></g></g></g><g fill="#e52024" fill-opacity="1"><g transform="translate(256.255762, 121.633801)"><g><path d="M 1.0625 0 L 0.125 0 L 0.125 -0.75 L 1.0625 -0.75 Z M 1.0625 0 "/></g></g></g><g clip-path="url(#fd8315e0fd)"><path fill="#f5f6f5" d="M 166.0625 88.5625 L 166.0625 88.984375 L 157.886719 88.984375 L 160.507812 86.367188 C 160.613281 86.453125 160.730469 86.511719 160.867188 86.535156 C 161 86.5625 161.132812 86.554688 161.261719 86.511719 C 161.390625 86.46875 161.503906 86.398438 161.59375 86.296875 C 161.6875 86.195312 161.75 86.078125 161.78125 85.945312 C 161.8125 85.8125 161.808594 85.679688 161.773438 85.550781 C 161.734375 85.417969 161.667969 85.304688 161.570312 85.207031 C 161.476562 85.113281 161.359375 85.042969 161.230469 85.007812 C 161.097656 84.96875 160.964844 84.96875 160.832031 85 C 160.699219 85.03125 160.582031 85.09375 160.484375 85.183594 C 160.382812 85.277344 160.3125 85.390625 160.269531 85.519531 C 160.226562 85.648438 160.21875 85.78125 160.242188 85.914062 C 160.269531 86.046875 160.328125 86.167969 160.414062 86.273438 L 155.203125 91.484375 L 141.207031 91.484375 L 141.207031 91.617188 L 155.257812 91.617188 L 157.757812 89.117188 L 159.886719 89.117188 L 160.863281 90.09375 L 162.992188 90.09375 L 163.96875 89.117188 L 166.066406 89.117188 L 166.066406 89.535156 L 167.039062 89.535156 L 167.039062 88.5625 Z M 166.90625 89.40625 L 166.195312 89.40625 L 166.195312 88.695312 L 166.90625 88.695312 Z M 166.90625 89.40625 " fill-opacity="1" fill-rule="nonzero"/></g><g clip-path="url(#46b79b91a6)"><path fill="#f5f6f5" d="M 251.773438 88.5625 L 251.773438 88.984375 L 243.597656 88.984375 L 246.21875 86.367188 C 246.324219 86.453125 246.441406 86.511719 246.574219 86.535156 C 246.710938 86.5625 246.84375 86.554688 246.972656 86.511719 C 247.101562 86.46875 247.210938 86.398438 247.304688 86.296875 C 247.398438 86.195312 247.460938 86.078125 247.492188 85.945312 C 247.523438 85.8125 247.519531 85.679688 247.484375 85.550781 C 247.445312 85.417969 247.378906 85.304688 247.28125 85.207031 C 247.1875 85.113281 247.070312 85.042969 246.941406 85.007812 C 246.808594 84.96875 246.675781 84.96875 246.542969 85 C 246.410156 85.03125 246.292969 85.09375 246.195312 85.183594 C 246.09375 85.277344 246.019531 85.390625 245.980469 85.519531 C 245.9375 85.648438 245.925781 85.78125 245.953125 85.914062 C 245.980469 86.046875 246.035156 86.167969 246.125 86.273438 L 240.914062 91.484375 L 226.917969 91.484375 L 226.917969 91.617188 L 240.96875 91.617188 L 243.46875 89.117188 L 245.597656 89.117188 L 246.574219 90.09375 L 248.703125 90.09375 L 249.679688 89.117188 L 251.773438 89.117188 L 251.773438 89.535156 L 252.75 89.535156 L 252.75 88.5625 Z M 252.617188 89.40625 L 251.90625 89.40625 L 251.90625 88.695312 L 252.617188 88.695312 Z M 252.617188 89.40625 " fill-opacity="1" fill-rule="nonzero"/></g></svg>